<?xml version="1.0" standalone="no"?>
<!DOCTYPE svg PUBLIC "-//W3C//DTD SVG 20010904//EN"
 "http://www.w3.org/TR/2001/REC-SVG-20010904/DTD/svg10.dtd">
<svg version="1.0" xmlns="http://www.w3.org/2000/svg"
 width="262.000000pt" height="262.000000pt" viewBox="0 0 262.000000 262.000000"
 preserveAspectRatio="xMidYMid meet">
<metadata>
Created by potrace 1.11, written by Peter Selinger 2001-2013
</metadata>
<g transform="translate(0.000000,262.000000) scale(0.100000,-0.100000)"
fill="#000000" stroke="none">
<path d="M1245 2403 c-156 -34 -270 -183 -260 -337 19 -272 340 -403 542 -222
111 100 138 250 70 385 -65 131 -214 205 -352 174z"/>
<path d="M245 1786 c-97 -27 -170 -88 -216 -181 -20 -42 -24 -64 -23 -135 1
-104 25 -162 96 -232 163 -159 438 -101 526 111 29 70 26 196 -6 262 -66 136
-236 215 -377 175z"/>
<path d="M2208 1786 c-52 -14 -113 -51 -153 -93 -108 -114 -113 -310 -9 -431
154 -180 431 -145 538 68 32 64 34 75 31 147 -3 93 -27 154 -84 216 -79 85
-209 123 -323 93z"/>
<path d="M710 1037 c-128 -130 -241 -249 -252 -264 -43 -65 -61 -118 -64 -193
-3 -67 0 -82 28 -139 80 -167 276 -266 430 -216 95 31 92 29 301 234 l157 155
174 -172 c192 -191 234 -218 348 -228 111 -10 226 43 307 141 65 80 84 127 85
216 0 67 -4 84 -34 145 -29 59 -65 101 -244 283 -116 117 -224 226 -241 242
l-30 29 -68 -68 c-37 -37 -66 -73 -65 -79 2 -7 100 -111 219 -230 119 -120
224 -232 233 -250 51 -101 -25 -219 -148 -227 -55 -4 -79 15 -286 233 -146
154 -194 191 -250 191 -66 0 -93 -23 -361 -303 -46 -49 -97 -96 -113 -104
-130 -68 -281 92 -209 221 5 9 111 119 236 244 l226 228 -73 73 -74 73 -232
-235z"/>
</g>
</svg>
