<svg xmlns="http://www.w3.org/2000/svg" width="234.46" height="37.535" viewBox="0 0 234.46 37.535"><defs><style>.a{fill:#039cd8;}.b{fill:#f1b71c;}</style></defs><g transform="translate(0.01 0)"><path class="a" d="M22.35,0a5.57,5.57,0,1,0,5.56,5.57A5.57,5.57,0,0,0,22.35,0ZM39.12,10.45A5.57,5.57,0,1,0,44.69,16,5.57,5.57,0,0,0,39.12,10.45Zm35.45,1.81a6.81,6.81,0,0,0-2.41-1.57,9.37,9.37,0,0,0-3.49-.59H56.33v4.21H68.85a3.15,3.15,0,0,1,2.51.94,3.44,3.44,0,0,1,.8,2.27,3.61,3.61,0,0,1-.2,1.23,3.17,3.17,0,0,1-.58,1.05,2.82,2.82,0,0,1-1,.75,3.73,3.73,0,0,1-1.53.28h-8.7a4,4,0,0,0-2.89.89,4.06,4.06,0,0,0-.89,2.93v9.51h4.21V25.47a.53.53,0,0,1,.6-.61h7.49a8.44,8.44,0,0,0,3.58-.68,7,7,0,0,0,2.41-1.74A6.64,6.64,0,0,0,76,20a9,9,0,0,0,.41-2.71A8.69,8.69,0,0,0,76,14.56a6.07,6.07,0,0,0-1.43-2.3ZM203,3.37H186.68V6.54H203ZM18.54,21.88,16,19.41,8.81,26.74C5.64,30,6.27,33.29,8.55,35.55a5.91,5.91,0,0,0,7.3,1.19,8.19,8.19,0,0,0,1.72-1.35h0l-2.32-2.45-.17.18a2.93,2.93,0,0,1-1.53.88,2.67,2.67,0,0,1-2.4-.83,2.53,2.53,0,0,1,0-3.85ZM11.13,16a5.56,5.56,0,1,0-1.625,3.938A5.57,5.57,0,0,0,11.13,16ZM126.21,8.43a5.59,5.59,0,0,0-1.12,3.81V18h4.1V11.81c0-1,.45-1.53,1.36-1.53H131V7.18h-1.28a4.52,4.52,0,0,0-3.51,1.25Zm72,1.94a6.32,6.32,0,0,0-3.12-.69,6.43,6.43,0,0,0-3.16.69,4.57,4.57,0,0,0-1.9,2.41l-8.45,21.38h4.63l7.63-19.35A1.23,1.23,0,0,1,195,14a1.17,1.17,0,0,1,1.18.82l7.31,19.35h4.67l-8.13-21.38a4.39,4.39,0,0,0-1.85-2.42Zm-36.79,2.71c-1.86,2-2.79,5-2.79,9.07s.93,7.05,2.79,9,4.56,3,8.08,3h9.3V30h-9.3q-3.53,0-5.1-1.84t-1.57-6q0-4.17,1.59-6t5.08-1.84h9.3V10.1h-9.3c-3.5,0-6.24,1-8.11,2.98ZM84.92,29.16A2.87,2.87,0,0,1,84,26.93Q84,24,87.7,24H99.64V20.19H87.81q-3.68,0-3.67-2.85A2.92,2.92,0,0,1,85,15.13a3.91,3.91,0,0,1,2.78-.82h12V10.1h-12a11.85,11.85,0,0,0-3.65.49,6.87,6.87,0,0,0-2.5,1.35A5.35,5.35,0,0,0,80.18,14a7.32,7.32,0,0,0-.46,2.64c0,2.69,1.13,4.49,3.38,5.42a5.56,5.56,0,0,0-2.56,2.09,6.13,6.13,0,0,0-.89,3.44,7.44,7.44,0,0,0,.44,2.6,5.05,5.05,0,0,0,1.43,2.08A6.91,6.91,0,0,0,84,33.66a11.56,11.56,0,0,0,3.66.5h12.2V30H87.67A4,4,0,0,1,84.92,29.16ZM231.65,13.1q-2.81-3-8.08-3h-3.28q-5.26,0-8.07,3c-1.86,2-2.8,5-2.8,9.09s.94,7,2.8,9,4.56,2.95,8.07,2.95h3.28q5.28,0,8.08-2.95c1.86-2,2.8-5,2.8-9S233.51,15.09,231.65,13.1Zm-3,15a6.373,6.373,0,0,1-5.08,1.9h-3.28q-3.53,0-5.09-1.82c-1-1.21-1.57-3.2-1.57-5.95s.53-4.79,1.59-6,2.75-1.85,5.07-1.85h3.28q3.5,0,5.07,1.85t1.56,6q0,4.06-1.58,5.89ZM103.42,14.31h7V34.16h4.24V14.31h7V10.1H103.42Zm50,8a6.41,6.41,0,0,0-2.47-1.62,11,11,0,0,0-4-.63h-5.63a5.34,5.34,0,0,1-1.75-.23,2.84,2.84,0,0,1-1.09-.64,2.26,2.26,0,0,1-.57-.93,3.71,3.71,0,0,1-.16-1.05,2.89,2.89,0,0,1,.75-2.05,3.16,3.16,0,0,1,2.39-.8h12.33V10.1H141a10.17,10.17,0,0,0-3.42.52,6.24,6.24,0,0,0-2.33,1.44,5.43,5.43,0,0,0-1.32,2.2,8.69,8.69,0,0,0-.41,2.76,9.282,9.282,0,0,0,.34,2.491A5.48,5.48,0,0,0,135,21.76a6,6,0,0,0,2.4,1.6,10.77,10.77,0,0,0,4,.61H147a5.65,5.65,0,0,1,1.83.25,3.21,3.21,0,0,1,1.16.66,2.22,2.22,0,0,1,.61,1,3.9,3.9,0,0,1,.17,1.12,3,3,0,0,1-.8,2.16,3.32,3.32,0,0,1-2.51.84H133.9v4.2h13.4a10.09,10.09,0,0,0,3.51-.53,6.43,6.43,0,0,0,2.37-1.48,5.6,5.6,0,0,0,1.35-2.23,8.669,8.669,0,0,0,.43-2.81,9.873,9.873,0,0,0-.34-2.572,5.23,5.23,0,0,0-1.25-2.318Z"/><path class="b" d="M36.09,35.55c-2.16,2.13-5.72,3.18-9-.16h0l-4.4-4.45a.51.51,0,0,0-.27-.17h-.16a.51.51,0,0,0-.27.17l-4.38,4.44-2.32-2.45.19-.19L20,28a3.22,3.22,0,0,1,2.33-1.17A3.22,3.22,0,0,1,24.65,28l4.53,4.78.36.37a2.6,2.6,0,0,0,3.94,0,2.53,2.53,0,0,0,0-3.85l-7.33-7.43,2.49-2.47,7.23,7.33C39,30,38.37,33.29,36.09,35.55Z"/></g></svg>