<svg xmlns="http://www.w3.org/2000/svg" width="25.921" height="21.766" viewBox="0 0 25.921 21.766"><defs><style>.a{fill:none;stroke:#fb6340;stroke-linecap:round;stroke-linejoin:round;stroke-width:2px;}</style></defs><g transform="translate(1.012 1.008)"><path class="a" d="M327.565,413.648c-.786-4.9-6.1-3.36-5.9,1.065l.038.038C321.734,421.092,328.816,419.255,327.565,413.648Zm7.815,1.1.038-.038c.2-4.425-5.111-5.968-5.9-1.065C328.269,419.255,335.351,421.092,335.38,414.751Zm-16.454,2.893h-.038c-4.093.1-2.138,9.006,1.412,5.448C321.545,421.495,321.247,418.041,318.926,417.644Zm9.677,3.084h-.12c-7.217-.664-11.146,14.789-.3,7.844h.729C339.748,435.517,335.819,420.064,328.6,420.728Zm9.594-3.084h-.038c-2.321.4-2.619,3.851-1.374,5.448C340.336,426.65,342.29,417.747,338.2,417.644Z" transform="translate(-316.594 -410.615)"/></g></svg>